<?xml version="1.0" encoding="UTF-8"?><svg id="b" xmlns="http://www.w3.org/2000/svg" viewBox="0 0 432 301.78"><path d="M166.99,296.47v.6h-6.59v-.6c1.97.13,4.63.15,6.59,0Z" fill="#877c83"/><path d="M375.78,199.64c-42.24,37.59-119.36,30.97-150.03-17.85,5.57-3.2,10.96-6.45,16.1-10.32,17.8-13.43,31.31-33.55,56.18-20.13,3.35,1.81,5.98,5.07,10.09,4.95s10.88-6.27,15.54-7.88c26.73-8.46,45.79,23.62,67.78,32.37.86,1.33-2.94,5.62-3.94,6.89-3.46,4.38-7.55,8.26-11.71,11.95ZM286.84,176.02c-12.56,1.12-24.88,9.55-37.75,7.19v1.79c27.6,9.08,53.04,11.66,82.69,8.99,12.54-1.02,26-3.79,36.55-10.79-10.46-.02-11.54,1.1-20.82-4.15-7.35-1.92-16.84-3.97-24.43-3.64l.31.6c-3.8.48-8.65,3.17-12.58,4.19h-3.6c-3.52-2.48-9.4-3.63-13.78-4.19-1.4-1-5.07-1.02-6.59,0Z" fill="#ea7c24"/><path d="M52.23,226.36l1.16,1.24,8.74,47.3c7.22-14.38,6.9-32.89,12.97-47.99,3.29-.55,15.13-1.72,16.92,1.02l11.15,46.37c4.88-13.67,5.17-30.55,9.59-44.35.34-1.14.9-3.59,2.4-3.59,0,0,13.78,0,13.78,0,4.4.61-17.97,66.21-17.7,68.59-3.14,1.27-6.43.26-9.89.3-2.6.04-5.69,1.62-8.3-.04-4.14-2.63-8.39-33.15-11.45-38.88l-10.83,38.3c-2.87,2.41-6.53.7-9.48.7-3.1,0-7.01,1.78-9.98-.93l-17.24-65.54c-.38-.2.95-2.51,1.09-2.51h17.08Z" fill="#4e337b"/><path d="M203.84,295.27c-1.4-1.21-1.54-2.74-1.55-4.5-.1-18.71,2.22-37.94,1.88-56.95-.07-4.02-2.48-7.51,3.84-8.09,3.54-.33,10.5,0,14.35.09,5.15.12,6.37,6.04,8,9.98,4,9.66,7.16,19.76,10.95,29.51l15.23-38.4c1.36-.98,20.06-.92,21.18.19l1.23,66.56c-.85,2.84-12.06,2.68-14.55,2.2-4.07,2.11-2.39-44.22-3.32-44.93l-15.06,39.76c-1.39,2.75-9.55,2.97-11.33,1.32-7.49-12.54-8.94-29.29-16.75-41.68v42.85c0,.62-1.47,2.1-2.1,2.1h-11.98Z" fill="#4e337b"/><path d="M49.54,20.82c.42-4.37-1.62-11.63.9-14.98h22.17c7.36,10.7,8.72,25.39,14.38,37.14,6.88-10.94,7.25-27.07,14.98-37.14h20.37c2.38,0,.33,9.38.28,11.06-.51,16.44.92,33.15-.57,49.46h-14.68l-.9-.9V29.21c-1.4-.41-2.02,2.11-2.51,3.19-4,9.02-6.53,19.47-10.68,28.27-.55,1.16-1.49,3.73-2.1,4.49-1.59,2.01-10.46,2.93-12.2.22l-15.36-39.77-.25,39.75c-.96,1.51-12.24,1.49-13.29.16-1.57-9.57-.05-34.2-.54-44.7Z" fill="#d5397b"/><path d="M325.19,5.83c1.47,2.61.8,2.87-.4,5.29-4.98,18.1-10.6,36.05-16.1,54.01-.39.78-.96,1.05-1.78,1.21-1.65.32-14.13.21-15.26-.3-2.38.67-9.1-33.81-9.9-35.05l-1.48,1.52-9.14,33.1c-.94,1.11-15.75,1.15-16.99.2l-17.65-58.98c.35-1.45,17.63-1.63,18.65,0l8.64,40.94,10.3-40.59c.52-1.34,2.2-1.27,3.46-1.38,2.76-.23,11.25-.67,12.84,1.6l9.67,38.85,1.2.04,8.98-40.46c2.27.47,14.01-.63,14.98,0Z" fill="#d5397b"/><path d="M344.67,295.27c-3.02-3.08-.95-8.01-.87-11.66.31-15.57.3-31.83,0-47.39-.09-4.96-3.1-10.22,4.45-10.49,5.81.38,14.68-1.25,17.2,5.63,6.98,10.96,11.33,24.82,19.08,35.16v-38.65c-.12-2.02,14.16-2.74,14.26.12,0,0,.46,65.53.46,65.53-.77,2.06-2.29,2.21-4.2,2.39-3.52.32-10.67.49-13.31-2.03-8.33-12.42-13.84-28.17-22.23-40.36-.36-.53.09-1.11-1.34-.78.17,9.68-.23,19.4-.03,29.08.04,2.09,2.05,13.46-.87,13.46h-12.58Z" fill="#4e337b"/><path d="M111.26,79.54l-6.01,40.35c3.24,2.53,5.7-.21,7.01-3.22l3.71.1c1.79,6.35-8.16,13.93-13.98,13.73-3.59-.13-5.44-2.36-7.81-4.24-3.73,3.78-10.56,5.31-15,1.84-1.77-1.39-.78-3.34-2.99-3.05-1.12.14-1.77,2.12-2.99,3.03-3.82,2.84-11.41,4.09-13.78-1.19-4.8-5.87,10.25-27.39-2.68-24.26-4.83,2.04-6.82,21.01-8.11,26.05-2.68,3.15-7.68,2.08-9.6-1.22-6,3.65-11.29,4.26-16.15-1.24-33.09,20.93-21.06-46.99,6.01-29.84,3.26-1.13,4.02-3.7,9.01-1.29,1.61,2.12-7.87,23.4-3.36,26.12,3.94,2.38,6.42-4.52,7.23-7.17,1-3.28,3.26-17.86,4.79-19.18,1.29-1.12,4-1.15,5.64-.88,6.43,2.93,1.82,3.38,8.56.1,21.15-2.24,5.54,20.56,9.11,27.16.76.28,1.88.48,2.64.29,1.41-.34,5.24-13.77,6.28-16.02,3.7-8.06,11.33-14.51,20.48-10.38l3-15.58h8.99ZM20.63,101.83c-6,.89-9.71,13.91-6.44,18.75,6.23,3.25,7.89-1.91,9.29-6.87,1.16-4.13,4.05-12.89-2.84-11.88ZM96.79,102.4c-8.82-5.45-14.37,16.46-9.5,18.79,7.52,3.74,9.94-14.03,9.5-18.79Z" fill="#f6c61c"/><path d="M160.4,296.47c-38.94-2.64-38.44-68.05-.33-70.74,52-3.25,44.14,76.16.33,70.74ZM162.05,239.7c-22.31,3.39-16.07,53.12,8.72,41.07,12.25-6.55,12.85-43.74-8.72-41.07Z" fill="#4e337b"/><path d="M162.79,148.46v23.07l.9.9h19.48c-.4-2.39.49-4.61.62-6.87.19-3.11-.69-15.33.52-16.86,1-1.26,10.95-1.12,12.81-.71,4.78,1.05,2.28,6.54,2.2,9.73-.42,17.53.44,35.12-.08,52.66-.73,2.1-16.03,3.27-16.08-.5,0,0,0-23.67,0-23.67h-20.37v24.27c.23,1.97-15.37,2.83-15.46-.12,0,0-.42-61.3-.42-61.3,1.09-2.53,15.01-1.01,15.88-.6Z" fill="#d5397b"/><path d="M306.61,240.14v14.38c5.34,1.71,18.27-3.33,21.57.9,0,0,0,10.19,0,10.19,0,.17-.71,2.06-.97,2.13l-21.2-.64.6,14.39,26.82-.45c.84,5.07,3.21,14.87-4.35,14.88-10.85.01-22.01-.65-32.98-.67-2.22,0-4.17,1.32-6.32-.82l-.25-67.48c1.52-2.59,13.28-.62,16.16-.57,8.56.16,17.14-.25,25.69.08,2.15.73,2,10.21,1.47,12.06-1.12,3.92-7.57,1.67-10.33,1.6-5.29-.13-10.62.14-15.9.02Z" fill="#4e337b"/><path d="M125.04,189.21h-9.29c-1.96-1.29-1.3-12.31.6-12.58,0,0,22.47,0,22.47,0,1.49,3.72.15,7.55,0,11.09,3.04,17.97-14.38,26.8-30.21,24.8-34.61-3.88-31.64-68.59,10.74-65.28,9.51.74,17.47,7.34,18.58,16.78-.77,1.76-10.55,4.6-12.58,4.22-3.06-.58-1.91-6.79-7.85-7.75-15.06-2.42-17.05,15.63-15.78,26.56.45,15.33,23.52,16.11,23.31,2.16Z" fill="#d5397b"/><path d="M381.82,66.36c-3-.84-.93-10.36-.87-12.86.33-15.18-.27-30.41-.05-45.59-.68-6.26,32.45-2.14,35.6-.79,14.92,5.84,13.65,29.38-2.03,33.79,3.22,8.48,14.21,16.08,15.54,24.81-.53.83-15.14,1.05-16.72.34-2.8-1.26-8.45-18.52-11.09-21.87l-5.7-.59v21.87l-.9.9c-3.63-.65-10.64.88-13.78,0ZM396.5,16.02v16.48c0,1.19,6.89.45,8.04.25,6.15-1.08,9.27-6.64,6.47-12.36-2.46-5.03-9.79-4.46-14.51-4.37Z" fill="#d5397b"/><path d="M212.97,5.43c26.01,1.29,30.89,40.72,12.45,56.14-12.5,10.02-33.85,7.76-42.14-7.01-12.63-21.02,3.04-55.11,29.68-49.13ZM206.42,16.75c-18.61,2.13-15.81,46.78,5.93,37.74,12.46-5.4,12.6-39.46-5.93-37.74Z" fill="#d5397b"/><path d="M373.13,17.52c-.64,2.07-8.15.32-9.86.28-5.09-.15-10.22.15-15.3.03-.23.64.6,1.3.6,1.49v9.89l18.79-.05c1.85,1.8,1.01,13.24-1.11,13.24h-17.68v11.98c3.88-.18,7.83.23,11.71.02,2.84-.15,10.85-1.93,12.87-.93,3.34,1.66,1.12,12.89-.91,12.89h-39.85l.54-60.28c10.78-3.5,25.38.76,36.94-.87,1.18-.42,3.27,2,3.27,2.73,0,0,0,9.59,0,9.59Z" fill="#d5397b"/><path d="M3.69,66.36c-2.9-.82-.92-8.74-.87-11.06.36-16.28-.26-32.62-.33-48.87,7.73-3.39,28.87-1.51,37.19-1.22.66.08,1.35-.05,1.79.61.7,2.04,1.66,11.41.31,12.35l-23.41-.34c.21,2.17-1.96,11.14.39,11.9,3.42,1.11,15.39-2.13,17.6-.82,1.81,1.07,1.78,12.15,0,13.19l-17.99-.31v12.59c4.68-.17,9.43.22,14.11.02,2.47-.1,8.92-2.08,10.48-.34,1.27,1.42,1.76,12.3-.92,12.3H3.69Z" fill="#d5397b"/><path d="M81.3,172.43c-1.32,15.75-15.45,19.25-29.06,17.98-3.29,6.22.97,14.76-2.4,20.97h-13.78c-2.16-2.78-.36-7.3-.28-10.46,1.06-16.07-3.18-37.16.87-51.86,0,0,27.57,0,27.57,0,10.84,1.31,19.09,12.53,17.08,23.37ZM51.33,161.34v17.38c1.96,1.55,8.94.4,11.2-.78,5.08-2.66,5.22-12.05.75-15.36-2.73-2.01-9.17-3.22-11.95-1.24Z" fill="#d5397b"/><path d="M131.63,66.36l.58-60.24c8.34-2.71,27.47-1.47,35.19,1.99,10.92,5.94,11.88,25.6,1.94,32.74-7.71,4.89-14.45,3.93-22.73,3.93-.76,7.2,1.57,14.52,0,21.57h-14.98ZM146.61,16.92v17.68c8.08-.41,15.36-.31,14.41-10.52-.28-3.05-1.9-5.96-4.98-7-1.6-.54-8.89-1.88-9.43-.16Z" fill="#d5397b"/><path d="M287.74,132.88c-1-.31-1.1-2.2-.77-3.14,5.62-9.61,11.48-51.27,20.51-52.62,2.08-.2,11.76-.09,12.98,1.03l18.42,52.79-.8,1.95h-11.98l-4.84-10.14c-5.91-1.62-12.23-.18-18.25.23l-3.87,9.91c-2.9-.56-8.96.76-11.39,0ZM318,111.9l-5.69-19.78c-1.02-.02-4.74,17.66-5.09,19.78h10.79Z" fill="#098290"/><path d="M253.74,78.49l12.42,38.81,11.42-38.33.86-.93,12.54.37-17.05,53.85c-2.56,2.92-12.04-.65-15.94.91-2.16-.45-3.07-3.85-3.79-5.71-5.82-15.06-9.43-32.25-14.76-47.62l.62-1.83c1.41-.96,12.69-.52,13.68.48Z" fill="#098290"/><path d="M410.88,78.34c.07,15.71,2.03,10.51-19.18,11.39l.61,10.19c2.33-.82,14.89-1.16,16.03.15,1.01,3.29,1.52,7.76-.75,10.64h-15.28v10.19h19.48c1.63,2,2.18,11-.72,11.87l-31.7-.42s-.87-2.13-.87-2.13l.32-51.27c3.5-3.17,26.77-1.59,32.06-.6Z" fill="#098290"/><path d="M139.42,98.42c.75,2.42,14.48-.79,15.88,2.09.61,1.25.57,8.31-.24,9.35-1.57,2-12.18.04-15.08,1.1v9.66c3.95,1.26,15.9-1.03,18.81.81,1.52.96,1.55,10.11-.19,11.14-2.82.48-28.2,1.42-32.22-.45l-.74-2.54c1.54-16.47-1.98-35.34,1.49-51.25,1.01-1.19,26.83-.73,30.42,0,1.59.69,1.61,11.61-1.05,11.39,0,0-17.08,0-17.08,0v8.69Z" fill="#098290"/><path d="M232.01,77.74c3.39.64,2.4,10.12.92,11.71l-17.4.28v9.59h15.58c.93,3.66.94,7.69,0,11.39h-15.58v10.19h18.88c2.26,1.66,2.22,11.11-.1,11.89-9.8-1.2-22.37,2.5-31.42-.74l-.54-54.29h29.66Z" fill="#098290"/><path d="M335.08,89.73c-3.13-.57-2.5-9.08-1.21-11.4l37.5-.31c3,.7,2.43,11.72-.33,11.72h-10.49v41.65c0,2.12-11.96,1.98-12.88.89-.13-.16-.91-1.98-.91-2.09v-40.45c-3.51-.44-8.37.6-11.69,0Z" fill="#098290"/><path d="M179.57,120.29h15.28c3.18,0,2.06,12.58,0,12.58h-28.46l-.45-52.92c.66-3.52,11.21-2.99,13.64-1.32v41.65Z" fill="#098290"/><path d="M49.54,47.18c-.06-8.77-.08-17.59,0-26.37v26.37Z" fill="#cb90a9"/><path d="M81.3,172.43c.1-1.65.12-3.75,0-5.39,1.09,1.24.92,4.08,0,5.39Z" fill="#b692a6"/><path d="M286.84,176.02c6.67-.45,14.77.62,20.37,4.19,3.71,1.72,11.85-4.05,16.18-4.19,7.3-.79,17.1,1.06,24.12,3.04,9.29,5.26,10.4,4.13,20.82,4.15-8.57,6-19.76,8.34-29.96,10.19-2.27.3-4.29.48-6.59.6-1.52.08-3.77-.52-4.79.6-28.98,1.07-51.28-.58-77.91-9.59v-1.79c12.87,2.36,25.19-6.07,37.76-7.19Z" fill="#4e337b"/><path d="M331.78,176.02c-2.15-.2-6.31-.26-8.39,0l-.31-.6c2.73.35,6.22-.76,8.7.6Z" fill="#dc825b"/><path d="M293.43,176.02c-1.98-.14-4.6-.13-6.59,0,1.52-1.02,5.19-1,6.59,0Z" fill="#e08a48"/><path d="M331.78,194c-1,1.07-3.29.59-4.79.6,1.02-1.12,3.27-.52,4.79-.6Z" fill="#098290"/><path d="M310.81,180.22c-2.05.53-1.22.88-3.6,0h3.6Z" fill="#098290"/><path d="M341.37,192.8c-.94.16-1.72.43-3,.6l3-.6Z" fill="#945799"/></svg>