<?xml version="1.0" encoding="UTF-8"?><svg id="d" xmlns="http://www.w3.org/2000/svg" viewBox="0 0 168.17 90.25"><path d="M151.03,61.23C108.79,98.82,31.67,92.2,1,43.38c5.57-3.2,10.96-6.45,16.1-10.32C34.9,19.64,48.4-.49,73.28,12.94c3.35,1.81,5.98,5.07,10.09,4.95,4.27-.13,10.88-6.27,15.54-7.88,26.73-8.46,45.79,23.62,67.78,32.37.86,1.33-2.94,5.62-3.94,6.89-3.46,4.38-7.55,8.26-11.71,11.95ZM62.09,37.61c-12.56,1.12-24.88,9.55-37.75,7.19v1.79c27.6,9.08,53.04,11.66,82.69,8.99,12.54-1.02,26-3.79,36.55-10.79-10.46-.02-11.54,1.1-20.82-4.15-7.35-1.92-16.84-3.97-24.43-3.64l.31.6c-3.8.48-8.65,3.17-12.58,4.19h-3.6c-3.52-2.48-9.4-3.63-13.78-4.19-1.4-1-5.07-1.02-6.59,0Z" fill="#ea7c24"/><path d="M62.09,37.61c6.67-.45,14.77.62,20.37,4.19,3.71,1.72,11.85-4.05,16.18-4.19,7.3-.79,17.1,1.06,24.12,3.04,9.29,5.26,10.4,4.13,20.82,4.15-8.57,6-19.76,8.34-29.96,10.19-2.27.3-4.29.48-6.59.6-1.52.08-3.77-.52-4.79.6-28.98,1.07-51.28-.58-77.91-9.59v-1.79c12.87,2.36,25.19-6.07,37.76-7.19Z" fill="#4e337b"/><path d="M107.03,37.61c-2.15-.2-6.31-.26-8.39,0l-.31-.6c2.73.35,6.22-.76,8.7.6Z" fill="#dc825b"/><path d="M68.68,37.61c-1.98-.14-4.6-.13-6.59,0,1.52-1.02,5.19-1,6.59,0Z" fill="#e08a48"/><path d="M107.03,55.59c-1,1.07-3.29.59-4.79.6,1.02-1.12,3.27-.52,4.79-.6Z" fill="#098290"/><path d="M86.06,41.8c-2.05.53-1.22.88-3.6,0h3.6Z" fill="#098290"/><path d="M116.62,54.39c-.94.16-1.72.43-3,.6l3-.6Z" fill="#945799"/></svg>