<?xml version="1.0" encoding="UTF-8"?><svg id="c" xmlns="http://www.w3.org/2000/svg" viewBox="0 0 240.85 179.62"><path d="M31.86,73.34c44.97-.35,102.12.21,147.42,0-.85,3.92,28.62-2.19,34.19.27,14.16,2.79,14.16,33.29,18.25,45.27,2.33,10.25,7.76,28.4,8.09,38.09.36,10.69-8.62,19.51-18.86,20.67H19.55c-39.15-2.75-5.11-71.66-5.95-95.88,3.19-8.86,10.37-8.16,18.26-8.41Z" fill="#098290"/><path d="M70.21,12.22c.4-.06,1.08-.11,1.21.39,2.67,10.4,3.18,24.84,4.84,35.82,2.43,8.08,2.54,16.64,4.15,24.92-16.11.04-32.45-.49-48.54,0-4.65-15.67-11.8-30.91-15.58-46.74l53.93-14.38Z" fill="#d5397b"/><path d="M145.12,39.78c.15.9-.22,2.01.06,2.93,21.47-.31,18.57,14.5,18.52,30.63-21.16,0-42.36,0-63.52,0,1.28-2.66-.05-4.85-.03-7.46.04-4.1.2-12.76,1.93-16.11,6.56-11.71,30.68-5.5,42.44-6.99l.6-3Z" fill="#f6c61c"/><path d="M214.63,6.22c-3.34,12.71-7.26,26.72-11.98,38.95-6.11,3.49-7.89,24.14-10.19,28.16-3.44-.2-7.1.27-10.52,0-1.84-.14-1.54.29-1.47-1.8,4.88-22.7,11.88-44.84,18.25-67.15,2.56-6.31,16.39-5.94,15.91,1.83Z" fill="#ea7c24"/><path d="M118.75,37.38c-3.18-.34-5.43-1.82-5.95-5.13-.19-5.86-1.86-18.39,1.88-23.5l32.57-.16c2.19.05,3.38,2.17,3.72,4.07.35,5.68,1.61,17.07-1.37,22.32-1.4,1.88-4.12,1.6-4.48,3.61-3.54-3.81-20.3.27-26.37-1.2Z" fill="#f6c61c"/><path d="M70.21,12.22l-53.93,14.38c-.74-3.08-5.7-9.3-2.37-11.66L67.98.32c2.01.54,3.51,9.86,2.23,11.9Z" fill="#4e337b"/><path d="M214.63,6.22c3.95,1.71,17.55,3.09,16.52,9.03-1.36,7.83-14.48.52-18.92-.04.61-2.08,2.29-7.22,2.4-8.99Z" fill="#4e337b"/><path d="M118.75,37.38c7.72.83,17.34-1,24.88-.04,2.61.44,1.06,3.83.89,5.44-8.55.26-17.26-.35-25.77,0v-5.39Z" fill="#e49426"/><path d="M211.63,17.01c.78,2.01,2.04.66,3.47,1.01,1.8.45,9.3,2.91,10.5,3.74.95.66,1.71,3.25,1.52,4.39-1.16,6.87-13.94-.59-17.89-.75.82-2.68,1.52-5.4,2.4-8.39Z" fill="#4e337b"/><path d="M208.64,27.2c2.5.6,6.06.86,7.65,2.95,1.41.56,3.19.16,5.14,1.34,3.01,1.82,2.87,4.51.4,6.8-3.65,1.73-11.83-2.14-15.58-3.3.8-2.52,1.63-5.35,2.4-7.79Z" fill="#4e337b"/><path d="M205.64,37.38c3.02,1.51,13.37,3.8,14.28,7.03,2.39,8.45-14.1,2.12-17.28.76.42-.69,2.65-6.72,3-7.79Z" fill="#4e337b"/><path d="M193.66,73.94c-2.8-.03-12.74,1.88-14.38,0,4.18-.49,9.35,1.01,13.18-.6.22-.03.86.49,1.2.6Z" fill="#5c6740"/><path d="M180.47,71.54c-.07,2.09-.37,1.65,1.47,1.8,3.41.27,7.08-.2,10.52,0-3.84,1.61-9,.11-13.18.6-.26-.87.96-1.69,1.2-2.4Z" fill="#93966d"/><path d="M111.63,100.98c2.8,1.48,8.14,9.48,9.42,9.66s4.26-5.08,5.67-6.78c.68-1.12,10.8-9.33,21.73-5.39s13.16,11.83,14.04,17.13c1.32,13.47-5.87,24.37-15.61,32.82-1,.87-12.74,9.11-13.15,9.58-.85.96-9.41,7.47-10.02,7.61-.79.17-2.11,1.19-4.23-.1s-38.45-22.11-38.41-45.17c-.44-4.19,2.42-13.46,5.28-16.62.21-.24,4.73-3.65,5.02-3.79.85-.43,1.55-.91,3.23-1.38,9.07-2.53,15.49,1.42,17.04,2.45Z" fill="#d5397b"/><path d="M163.09,73.34h-62.92c20.96,0,41.96,0,62.92,0Z" fill="#3a9989"/></svg>