<?xml version="1.0" encoding="UTF-8"?><svg id="a" xmlns="http://www.w3.org/2000/svg" viewBox="0 0 731.93 824.9"><path d="M284.16,807.25v1h-10.99v-1c3.28.22,7.72.25,10.99,0Z" fill="#877c83"/><path d="M197.27,134.09c74.95-.58,170.2.35,245.69,0-1.41,6.53,47.7-3.66,56.99.44,23.61,4.65,23.59,55.48,30.42,75.45,3.88,17.08,12.93,47.34,13.48,63.48.6,17.81-14.37,32.52-31.44,34.45H176.75c-65.26-4.59-8.52-119.43-9.92-159.81,5.31-14.77,17.29-13.61,30.44-14.01ZM321.83,176.36c-1.56-.6-18.12-.76-20-.3-.72.18-.52,1.6-1.43,1.94-1.01.38-2.55-.34-3.96.37-.47.24-8,5.93-8.36,6.32-4.78,5.27-9.53,20.71-8.81,27.7,2.11,28.82,19.57,38.21,38.1,55.24,1.63.57,3.86-.07,4.61.42,1.14,1.98-.17,3.67,3.7,4.26,4.64,5.2,13.85,9.09,17.6,15.37.93.55,5.74.45,7.05.16,1.03-.23,15.3-11.08,16.71-12.68.68-.77.64-2.79,1.13-3.12.4-.26,7.47-1.5,8.68-2.28.7-.45.49-2.44,1.09-3.21.41-.52,9.35-5.91,11.02-7.36,16.22-14.08,28.22-32.25,26.02-54.69-1.46-8.84-9.91-28.69-21.28-26.49-.82-.18-.27-1.82-2.12-2.06-4.27-.56-18.85-.57-23.1,0-1.28.17-15.87,10.57-17.01,12.43-2.35,2.8-2.8,12.77-6.39,11.62.86-3.64-2.25-6.94-4.59-8.37-4.34-3.75-5.6-9.02-10.27-11.49-2.58-1.72-7.78-.77-8.39-3.79Z" fill="#098290"/><path d="M632.14,645.87c-70.4,62.65-198.94,51.62-250.05-29.74,9.28-5.33,18.27-10.75,26.83-17.2,29.67-22.38,52.18-55.92,93.64-33.54,5.58,3.01,9.96,8.46,16.82,8.25,7.11-.21,18.14-10.44,25.91-13.13,44.55-14.11,76.31,39.37,112.96,53.95,1.43,2.22-4.9,9.37-6.57,11.49-5.76,7.3-12.59,13.77-19.52,19.92ZM483.91,606.5c-20.94,1.86-41.47,15.92-62.91,11.99v2.99c46,15.13,88.4,19.44,137.82,14.99,20.9-1.71,43.34-6.32,60.92-17.98-17.43-.04-19.23,1.83-34.71-6.92-12.25-3.19-28.07-6.62-40.72-6.06l.52,1c-6.33.8-14.42,5.28-20.97,6.99h-5.99c-5.86-4.14-15.67-6.05-22.97-6.99-2.34-1.66-8.45-1.71-10.99,0Z" fill="#ea7c24"/><path d="M92.9,690.39l1.93,2.07,14.56,78.83c12.04-23.97,11.49-54.82,21.62-79.98,5.49-.91,25.22-2.86,28.2,1.69l18.58,77.29c8.13-22.79,8.62-50.91,15.98-73.91.56-1.89,1.5-5.98,4-5.98,0,0,22.97,0,22.97,0,7.34,1.02-29.96,110.35-29.5,114.31-5.23,2.12-10.72.43-16.49.51-4.33.06-9.48,2.7-13.84-.06-6.9-4.38-13.98-55.25-19.08-64.8l-18.04,63.83c-4.78,4.02-10.89,1.17-15.81,1.17-5.17,0-11.69,2.97-16.64-1.55l-28.74-109.23c-.64-.33,1.58-4.18,1.82-4.18h28.46Z" fill="#4e337b"/><path d="M345.58,805.25c-2.33-2.01-2.57-4.57-2.58-7.5-.17-31.19,3.7-63.24,3.13-94.92-.12-6.7-4.14-12.51,6.4-13.49,5.91-.55,17.5,0,23.92.14,8.59.2,10.62,10.07,13.33,16.63,6.67,16.1,11.94,32.94,18.24,49.19l25.38-63.99c2.27-1.63,33.43-1.53,35.29.31l2.04,110.93c-1.42,4.73-20.09,4.46-24.25,3.66-6.78,3.51-3.98-73.71-5.53-74.88l-25.1,66.27c-2.32,4.58-15.92,4.95-18.89,2.19-12.48-20.9-14.9-48.82-27.91-69.47v71.41c0,1.04-2.46,3.5-3.5,3.5h-19.97Z" fill="#4e337b"/><path d="M88.4,347.82c.71-7.29-2.69-19.39,1.5-24.97h36.95c12.27,17.83,14.53,42.31,23.97,61.9,11.46-18.23,12.08-45.11,24.97-61.9h33.96c3.97,0,.55,15.63.46,18.44-.84,27.4,1.54,55.24-.96,82.44h-24.47l-1.5-1.5v-60.42c-2.34-.68-3.37,3.51-4.18,5.32-6.67,15.03-10.89,32.44-17.8,47.12-.91,1.93-2.49,6.21-3.5,7.49-2.65,3.35-17.44,4.89-20.33.37l-25.61-66.28-.42,66.25c-1.6,2.52-20.39,2.49-22.15.26-2.61-15.95-.08-57-.9-74.5Z" fill="#d5397b"/><path d="M547.83,322.86c2.45,4.35,1.33,4.78-.67,8.82-8.29,30.16-17.67,60.08-26.84,90.01-.64,1.3-1.6,1.76-2.97,2.02-2.75.53-23.56.34-25.43-.49-3.97,1.11-15.17-56.36-16.51-58.42l-2.46,2.53-15.24,55.17c-1.56,1.84-26.25,1.92-28.32.33l-29.42-98.3c.59-2.42,29.38-2.71,31.09,0l14.4,68.24,17.17-67.65c.86-2.23,3.67-2.12,5.76-2.29,4.6-.39,18.76-1.12,21.39,2.66l16.11,64.75,2,.06,14.97-67.43c3.79.78,23.36-1.04,24.97,0Z" fill="#d5397b"/><path d="M261.19,32.22c.67-.1,1.8-.18,2.01.65,4.45,17.33,5.29,41.4,8.06,59.69,4.05,13.47,4.24,27.74,6.91,41.53-26.86.07-54.09-.82-80.9,0-7.74-26.12-19.66-51.52-25.97-77.9l89.89-23.97Z" fill="#d5397b"/><path d="M580.29,805.25c-5.03-5.13-1.58-13.36-1.46-19.44.52-25.94.5-53.04,0-78.99-.16-8.27-5.16-17.03,7.41-17.49,9.68.64,24.46-2.08,28.66,9.38,11.63,18.27,18.88,41.36,31.79,58.6v-64.42c-.2-3.37,23.6-4.57,23.77.2,0,0,.76,109.22.76,109.22-1.28,3.43-3.81,3.69-7,3.98-5.87.54-17.79.81-22.18-3.38-13.89-20.71-23.06-46.95-37.06-67.27-.61-.88.16-1.85-2.23-1.3.29,16.13-.39,32.34-.05,48.47.07,3.48,3.41,22.43-1.46,22.43h-20.97Z" fill="#4e337b"/><path d="M191.27,445.7l-10.02,67.24c5.4,4.21,9.49-.35,11.69-5.36l6.19.17c2.98,10.59-13.6,23.22-23.3,22.88-5.98-.21-9.07-3.94-13.01-7.07-6.22,6.3-17.61,8.85-24.99,3.07-2.95-2.31-1.3-5.56-4.99-5.09-1.87.24-2.95,3.53-4.99,5.05-6.36,4.74-19.02,6.82-22.96-1.98-8-9.78,17.08-45.64-4.47-40.43-8.05,3.41-11.37,35.01-13.51,43.41-4.46,5.25-12.8,3.47-16-2.03-10,6.08-18.82,7.1-26.92-2.06-55.15,34.88-35.11-78.32,10.02-49.74,5.43-1.88,6.7-6.16,15.02-2.16,2.68,3.53-13.11,39-5.6,43.53,6.57,3.96,10.69-7.53,12.05-11.96,1.67-5.46,5.44-29.77,7.98-31.97,2.15-1.86,6.67-1.91,9.4-1.47,10.72,4.88,3.03,5.64,14.27.17,35.24-3.73,9.24,34.26,15.18,45.27,1.27.47,3.13.8,4.4.49,2.35-.57,8.74-22.94,10.46-26.7,6.17-13.44,18.89-24.18,34.13-17.3l5-25.97h14.98ZM40.23,482.85c-10,1.48-16.19,23.18-10.74,31.25,10.38,5.42,13.14-3.19,15.48-11.46,1.94-6.88,6.75-21.49-4.74-19.79ZM167.16,483.8c-14.71-9.08-23.95,27.43-15.84,31.31,12.54,6.23,16.57-23.39,15.84-31.31Z" fill="#f6c61c"/><path d="M273.17,807.25c-64.9-4.41-64.07-113.41-.54-117.9,86.67-5.42,73.57,126.93.54,117.9ZM275.92,712.63c-37.18,5.65-26.78,88.53,14.53,68.45,20.42-10.91,21.42-72.9-14.53-68.45Z" fill="#4e337b"/><path d="M277.17,560.56v38.45l1.5,1.5h32.46c-.67-3.98.81-7.68,1.04-11.44.31-5.18-1.15-25.54.86-28.1,1.66-2.11,18.25-1.87,21.36-1.19,7.96,1.75,3.8,10.9,3.67,16.22-.69,29.22.74,58.54-.13,87.76-1.22,3.5-26.71,5.45-26.8-.83,0,0,0-39.45,0-39.45h-33.96v40.45c.38,3.28-25.61,4.72-25.77-.2,0,0-.71-102.17-.71-102.17,1.82-4.22,25.02-1.68,26.47-.99Z" fill="#d5397b"/><path d="M516.87,713.37v23.97c8.9,2.85,30.46-5.55,35.96,1.5,0,0,0,16.98,0,16.98,0,.28-1.18,3.43-1.62,3.55l-35.34-1.06,1,23.98,44.7-.75c1.39,8.46,5.35,24.78-7.24,24.8-18.09.02-36.69-1.08-54.97-1.12-3.7,0-6.95,2.2-10.54-1.36l-.42-112.46c2.53-4.31,22.14-1.03,26.94-.95,14.26.26,28.56-.42,42.82.13,3.58,1.21,3.33,17.02,2.45,20.1-1.87,6.53-12.62,2.78-17.22,2.67-8.82-.21-17.7.24-26.51.04Z" fill="#4e337b"/><path d="M214.24,628.47h-15.48c-3.26-2.15-2.17-20.52,1-20.97,0,0,37.45,0,37.45,0,2.48,6.2.25,12.59.01,18.49,5.06,29.95-23.96,44.67-50.34,41.33-57.68-6.47-52.73-114.32,17.91-108.79,15.86,1.24,29.12,12.24,30.96,27.96-1.28,2.93-17.59,7.67-20.97,7.03-5.09-.97-3.18-11.32-13.09-12.91-25.1-4.04-28.41,26.06-26.29,44.27.75,25.56,39.21,26.84,38.84,3.6Z" fill="#d5397b"/><path d="M642.21,423.73c-4.99-1.4-1.55-17.26-1.46-21.43.55-25.3-.45-50.68-.09-75.99-1.14-10.44,54.08-3.57,59.34-1.32,24.86,9.73,22.74,48.97-3.38,56.32,5.36,14.14,23.68,26.8,25.9,41.34-.88,1.38-25.24,1.75-27.86.57-4.67-2.1-14.08-30.87-18.48-36.45l-9.5-.99v36.45l-1.5,1.5c-6.05-1.09-17.73,1.47-22.97,0ZM666.68,339.83v27.47c0,1.98,11.48.75,13.4.41,10.25-1.81,15.44-11.07,10.78-20.6-4.1-8.38-16.32-7.43-24.18-7.28Z" fill="#d5397b"/><path d="M360.79,322.18c43.35,2.16,51.49,67.86,20.76,93.56-20.83,16.7-56.41,12.94-70.23-11.68-21.04-35.03,5.06-91.85,49.47-81.88ZM349.87,341.04c-31.01,3.54-26.35,77.97,9.88,62.9,20.77-9,21-65.76-9.88-62.9Z" fill="#d5397b"/><path d="M627.73,342.33c-1.07,3.45-13.59.54-16.44.46-8.48-.25-17.03.26-25.5.05-.38,1.07,1,2.17,1,2.49v16.48l31.32-.09c3.08,2.99,1.68,22.06-1.86,22.06h-29.46v19.97c6.46-.3,13.06.39,19.52.04,4.73-.26,18.09-3.22,21.45-1.55,5.56,2.76,1.86,21.48-1.51,21.48h-66.42l.9-100.47c17.96-5.84,42.29,1.27,61.57-1.45,1.97-.7,5.44,3.33,5.44,4.54,0,0,0,15.98,0,15.98Z" fill="#d5397b"/><path d="M386.03,78.16c.26,1.5-.37,3.34.1,4.89,35.78-.52,30.95,24.16,30.86,51.04-35.27,0-70.59-.01-105.87,0,2.13-4.44-.09-8.09-.04-12.43.07-6.84.34-21.27,3.21-26.85,10.93-19.52,51.13-9.16,70.74-11.65l1-5Z" fill="#f6c61c"/><path d="M12,423.73c-4.84-1.36-1.53-14.57-1.45-18.43.59-27.13-.43-54.36-.56-81.46,12.88-5.65,48.12-2.51,61.98-2.04,1.09.14,2.24-.09,2.99,1.01,1.16,3.4,2.77,19.01.52,20.58l-39.02-.57c.35,3.62-3.26,18.57.64,19.84,5.7,1.85,25.65-3.54,29.34-1.36,3.01,1.78,2.97,20.24,0,21.99l-29.98-.51v20.98c7.8-.29,15.71.36,23.52.04,4.12-.17,14.87-3.47,17.46-.56,2.11,2.37,2.94,20.49-1.53,20.49H12Z" fill="#d5397b"/><path d="M141.34,600.51c-2.2,26.25-25.74,32.09-48.44,29.96-5.49,10.36,1.61,24.6-3.99,34.96h-22.97c-3.6-4.64-.61-12.17-.46-17.44,1.76-26.78-5.29-61.94,1.46-86.43,0,0,45.94,0,45.94,0,18.06,2.19,31.82,20.88,28.46,38.95ZM91.4,582.03v28.96c3.27,2.59,14.89.67,18.67-1.3,8.47-4.43,8.71-20.09,1.24-25.6-4.54-3.36-15.28-5.36-19.91-2.06Z" fill="#d5397b"/><path d="M225.23,423.73l.97-100.4c13.9-4.52,45.78-2.45,58.65,3.31,18.2,9.91,19.8,42.67,3.23,54.57-12.85,8.15-24.08,6.55-37.89,6.56-1.27,12.01,2.62,24.21,0,35.95h-24.97ZM250.2,341.33v29.46c13.47-.68,25.6-.52,24.02-17.53-.47-5.09-3.17-9.93-8.3-11.67-2.67-.9-14.82-3.13-15.72-.26Z" fill="#d5397b"/><path d="M485.4,534.59c-1.66-.52-1.84-3.67-1.29-5.24,9.36-16.02,19.13-85.45,34.18-87.71,3.46-.33,19.6-.15,21.64,1.71l30.69,87.98-1.33,3.25h-19.97l-8.07-16.9c-9.85-2.7-20.39-.3-30.42.38l-6.45,16.52c-4.84-.93-14.93,1.26-18.98,0ZM535.84,499.63l-9.49-32.97c-1.71-.04-7.9,29.43-8.49,32.97h17.98Z" fill="#098290"/><path d="M428.74,443.94l20.7,64.69,19.03-63.88,1.44-1.56,20.9.61-28.41,89.76c-4.27,4.87-20.07-1.09-26.57,1.51-3.61-.76-5.12-6.42-6.32-9.51-9.71-25.1-15.72-53.75-24.6-79.37l1.03-3.05c2.36-1.6,21.14-.86,22.79.79Z" fill="#098290"/><path d="M690.65,443.7c.12,26.19,3.39,17.52-31.96,18.98l1.01,16.98c3.88-1.37,24.82-1.94,26.71.25,1.69,5.48,2.54,12.94-1.26,17.73h-25.47v16.98h32.46c2.71,3.33,3.63,18.34-1.2,19.78l-52.83-.7s-1.45-3.55-1.45-3.55l.54-85.44c5.83-5.29,44.62-2.65,53.44-.99Z" fill="#098290"/><path d="M238.21,477.16c1.25,4.04,24.13-1.32,26.47,3.49,1.01,2.08.96,13.85-.41,15.58-2.62,3.33-20.3.06-25.13,1.84v16.11c6.59,2.09,26.5-1.71,31.36,1.35,2.54,1.61,2.59,16.85-.32,18.57-4.7.8-47,2.36-53.71-.75l-1.24-4.24c2.57-27.44-3.3-58.9,2.48-85.42,1.69-1.98,44.71-1.22,50.7,0,2.66,1.16,2.69,19.35-1.75,18.98,0,0-28.46,0-28.46,0v14.48Z" fill="#098290"/><path d="M392.52,442.7c5.65,1.06,4,16.87,1.53,19.51l-29,.46v15.98h25.97c1.55,6.09,1.56,12.82,0,18.98h-25.97v16.98h31.46c3.77,2.77,3.7,18.51-.17,19.81-16.34-1.99-37.28,4.16-52.37-1.23l-.9-90.48h49.44Z" fill="#098290"/><path d="M501.88,22.23c-5.56,21.19-12.1,44.54-19.97,64.92-10.19,5.81-13.14,40.24-16.98,46.94-5.73-.33-11.84.45-17.53,0-3.07-.24-2.57.49-2.45-3,8.14-37.83,19.79-74.73,30.41-111.91,4.27-10.51,27.31-9.9,26.52,3.04Z" fill="#ea7c24"/><path d="M342.08,74.17c-5.29-.57-9.06-3.04-9.92-8.55-.31-9.76-3.09-30.65,3.14-39.17l54.28-.26c3.65.08,5.64,3.61,6.21,6.78.58,9.46,2.68,28.44-2.28,37.19-2.33,3.13-6.86,2.66-7.47,6.02-5.89-6.36-33.83.44-43.94-2Z" fill="#f6c61c"/><path d="M564.31,462.68c-5.22-.95-4.16-15.13-2.02-19l62.5-.52c5,1.17,4.06,19.53-.55,19.53h-17.48v69.41c0,3.53-19.94,3.29-21.46,1.49-.22-.26-1.51-3.29-1.51-3.48v-67.42c-5.86-.74-13.95,1.01-19.48,0Z" fill="#098290"/><path d="M305.13,513.62h25.47c5.3,0,3.44,20.97,0,20.97h-47.44l-.76-88.2c1.1-5.87,18.68-4.98,22.73-2.19v69.41Z" fill="#098290"/><path d="M261.19,32.22l-89.89,23.97c-1.24-5.13-9.5-15.5-3.94-19.43l90.12-24.37c3.35.9,5.84,16.43,3.71,19.83Z" fill="#4e337b"/><path d="M501.88,22.23c6.58,2.84,29.25,5.16,27.53,15.04-2.26,13.04-24.13.87-31.53-.06,1.01-3.47,3.81-12.04,3.99-14.98Z" fill="#4e337b"/><path d="M342.08,74.17c12.87,1.38,28.9-1.67,41.47-.07,4.35.73,1.77,6.38,1.48,9.07-14.24.43-28.77-.59-42.95,0v-8.99Z" fill="#e49426"/><path d="M496.89,40.21c1.3,3.35,3.4,1.1,5.78,1.69,3.01.75,15.49,4.85,17.5,6.24,1.59,1.1,2.85,5.41,2.53,7.31-1.94,11.44-23.23-.98-29.81-1.25,1.37-4.47,2.54-9,3.99-13.98Z" fill="#4e337b"/><path d="M491.9,57.19c4.17,1,10.09,1.43,12.75,4.91,2.35.94,5.31.27,8.56,2.23,5.02,3.03,4.79,7.51.66,11.33-6.08,2.89-19.71-3.56-25.97-5.49,1.33-4.19,2.71-8.91,3.99-12.98Z" fill="#4e337b"/><path d="M486.9,74.17c5.04,2.52,22.28,6.34,23.8,11.71,3.99,14.08-23.49,3.54-28.8,1.27.7-1.15,4.41-11.2,4.99-12.98Z" fill="#4e337b"/><path d="M88.4,391.77c-.1-14.62-.13-29.32,0-43.94v43.94Z" fill="#cb90a9"/><path d="M466.93,135.09c-4.67-.04-21.23,3.13-23.97,0,6.97-.82,15.58,1.68,21.97-1,.37-.05,1.43.82,2,1Z" fill="#5c6740"/><path d="M444.96,131.1c-.12,3.49-.62,2.76,2.45,3,5.69.45,11.79-.33,17.53,0-6.4,2.68-15,.18-21.97,1-.44-1.44,1.6-2.82,2-3.99Z" fill="#93966d"/><path d="M141.34,600.51c.17-2.75.19-6.25,0-8.99,1.82,2.07,1.53,6.8,0,8.99Z" fill="#b692a6"/><path d="M321.83,176.36c.61,3.02,5.81,2.07,8.39,3.79,4.67,2.47,5.93,7.74,10.27,11.49,2.34,1.43,5.45,4.73,4.59,8.37,3.58,1.15,4.04-8.78,6.39-11.62,1.14-1.86,15.73-12.26,17.01-12.43,4.25-.57,18.84-.56,23.1,0,1.85.24,1.3,1.88,2.12,2.06,11.37-2.21,19.82,17.66,21.28,26.49,2.2,22.45-9.79,40.61-26.02,54.69-1.67,1.45-10.61,6.83-11.02,7.36-.6.77-.39,2.76-1.09,3.21-1.21.78-8.28,2.01-8.68,2.28-.49.32-.45,2.34-1.13,3.12-1.41,1.6-15.68,12.45-16.71,12.68-1.31.29-6.12.38-7.05-.16-3.76-6.29-12.96-10.18-17.6-15.37-3.85-.66-2.53-2.02-3.7-4.26-.76-.48-2.98.15-4.62-.42-18.52-17.04-35.99-26.42-38.09-55.24-.73-6.99,4.03-22.43,8.8-27.7.36-.39,7.88-6.08,8.36-6.32,1.42-.71,2.95,0,3.96-.37.91-.34.71-1.76,1.43-1.94,1.88-.46,18.44-.3,20,.3Z" fill="#d5397b"/><path d="M415.99,134.09h-104.87c34.94-.01,69.93,0,104.87,0Z" fill="#3a9989"/><path d="M483.91,606.5c11.12-.75,24.62,1.04,33.96,6.99,6.18,2.86,19.75-6.75,26.97-6.99,12.16-1.32,28.5,1.77,40.2,5.06,15.48,8.76,17.34,6.88,34.71,6.92-14.28,10-32.93,13.9-49.94,16.98-3.79.5-7.15.81-10.99,1-2.54.13-6.29-.86-7.99,1-48.31,1.79-85.46-.97-129.84-15.99v-2.99c21.46,3.93,41.99-10.12,62.93-11.99Z" fill="#4e337b"/><path d="M558.81,606.5c-3.58-.33-10.52-.44-13.98,0l-.52-1c4.56.58,10.37-1.26,14.5,1Z" fill="#dc825b"/><path d="M494.89,606.5c-3.31-.23-7.67-.22-10.99,0,2.54-1.71,8.65-1.66,10.99,0Z" fill="#e08a48"/><path d="M558.81,636.46c-1.66,1.78-5.49.98-7.99,1,1.7-1.86,5.45-.87,7.99-1Z" fill="#098290"/><path d="M523.86,613.49c-3.42.89-2.04,1.47-5.99,0h5.99Z" fill="#098290"/><path d="M574.79,634.46c-1.56.27-2.87.72-4.99,1l4.99-1Z" fill="#945799"/></svg>